<svg xmlns="http://www.w3.org/2000/svg" viewBox="0 0 1024 1024">
  <rect width="1024" height="1024" rx="220" fill="#121317"/>
  <rect x="188" y="220" width="648" height="440" rx="58" fill="#f4f5f7"/>
  <rect x="240" y="276" width="544" height="296" rx="28" fill="#20242c"/>
  <path d="M350 410h160c44 0 80 36 80 80s-36 80-80 80H350V410Z" fill="#7dd3fc"/>
  <path d="M514 454h92c24 0 44 20 44 44s-20 44-44 44h-92v-88Z" fill="#34d399"/>
  <path d="M448 660h128l28 94H420l28-94Z" fill="#f4f5f7"/>
  <rect x="346" y="744" width="332" height="54" rx="27" fill="#f4f5f7"/>
  <circle cx="722" cy="390" r="32" fill="#facc15"/>
  <circle cx="722" cy="488" r="32" fill="#fb7185"/>
</svg>
